<?xml version="1.0" encoding="utf-8"?>
<!DOCTYPE svg PUBLIC "-//W3C//DTD SVG 1.1//EN"
        "http://www.w3.org/Graphics/SVG/1.1/DTD/svg11.dtd">
<svg version="1.1"
     xmlns="http://www.w3.org/2000/svg"
     x="0px"
     y="0px"
     viewBox="0 0 1000 1000"
     enable-background="new 0 0 1000 1000"
     xml:space="preserve" xmlns:xlink="http://www.w3.org/1999/xlink">
    <defs>
        <clipPath
                id="ear"
                transform="translate(0.000000,511.000000) scale(0.100000,-0.100000)"
                clipPathUnits="userSpaceOnUse">
            <path d="M4719.6,4995.4c-658.7-69.6-1262.1-351.9-1710.1-797.8c-413.2-411.2-732.3-1037.1-877.6-1718.3c-32.7-155.5-49.1-310.9-57.3-564.6c-14.3-558.4,40.9-818.2,198.4-922.6c163.6-108.4,396.8-10.2,495,208.7c45,104.3,67.5,227.1,130.9,761c55.2,466.4,106.4,740.5,182.1,961.4c210.7,619.8,711.9,1076,1444.2,1315.3c310.9,102.3,507.3,130.9,879.6,133c298.7,0,355.9-6.1,490.9-47c304.8-96.1,546.2-245.5,769.1-476.6c310.9-323.2,460.3-652.5,560.5-1235.5c139.1-810.1,24.6-1689.7-321.2-2505.9c-237.3-552.3-321.2-658.7-1305.1-1616c-515.5-499.1-644.4-699.6-828.5-1278.5c-200.5-625.9-278.2-791.6-464.4-992.1c-245.5-265.9-615.7-347.7-998.3-220.9c-341.6,112.5-517.5,321.1-538,640.2c-10.2,190.3,18.4,358,130.9,746.6c61.4,212.8,73.6,290.5,75.7,462.3c2,190.2-2,214.8-57.3,325.2c-83.9,163.6-143.2,204.6-304.8,204.6c-251.6,0-525.7-194.3-673-476.6c-130.9-255.7-147.3-327.3-145.2-679.2c0-284.4,6.1-335.5,57.3-501.2c220.9-732.3,748.7-1301,1360.3-1466.7c223-59.3,623.9-59.3,851,2c398.9,106.4,718,333.4,914.4,646.4c28.6,45,147.3,288.4,263.9,542.1c355.9,765.1,544.1,1039.2,930.7,1360.3c448,370.3,779.4,722.1,1002.4,1063.7C7405.4-777.3,7812.5,104.4,7970,597.3c188.2,576.9,247.5,961.4,231.2,1503.5c-16.4,540-79.8,808-300.7,1268.3c-333.4,691.4-887.8,1196.7-1583.3,1440.1C5873.3,4966.8,5190,5044.5,4719.6,4995.4z"/>
            <path d="M4506.8,3633c-218.9-47-419.3-155.5-564.6-302.7c-382.5-388.7-556.4-1006.4-441.9-1556.7c32.7-151.4,79.8-268,272.1-658.7c235.2-474.6,364.1-803.9,364.1-930.7c0-96.1-43-147.3-204.6-243.4c-204.6-120.7-343.7-304.8-458.2-601.4c-57.3-151.4-61.4-184.1-61.4-429.6c-2.1-233.2,4.1-280.2,47-384.6c75.7-190.3,214.8-358,370.3-441.9c128.9-71.6,139.1-73.7,358-73.7c216.8,0,229.1,2.1,353.9,69.6c272.1,147.3,466.4,429.6,697.6,1010.5c169.8,425.5,196.4,535.9,196.4,842.8c0,227.1-8.2,288.5-49.1,417.3c-69.6,210.7-237.3,464.4-521.6,789.6c-263.9,298.7-329.3,386.6-421.4,564.6c-94.1,184.1-126.8,327.3-118.6,515.5c14.3,310.9,169.8,538,462.3,675c122.7,57.3,155.5,63.4,321.2,63.4c304.8-4.1,515.5-114.6,670.9-353.9c178-270,239.3-507.3,239.3-910.3c0-282.3-18.4-445.9-94.1-836.7c-26.6-143.2-49.1-323.2-49.1-403c0-130.9,4.1-145.2,53.2-178c49.1-30.7,59.3-30.7,106.3-4.1c73.7,40.9,126.8,124.8,239.3,380.5c378.4,861.2,462.3,1566.9,255.7,2135.6c-188.2,519.6-576.9,787.6-1247.8,857.1C5012.1,3671.9,4662.3,3667.8,4506.8,3633z"/>
        </clipPath>
    </defs>

    <rect id="icon" x="0" y="0" width="1000" height="1000" clip-path="url(#ear)" fill="white" />
</svg>